<svg width="136" height="81" viewBox="0 0 136 81" fill="none" xmlns="http://www.w3.org/2000/svg">
<path d="M29 16.2H59.8168L33.8658 81H50.0852L82.524 0H29V16.2Z" fill="#EB5757"/>
<path d="M136 24.3C136 10.9929 124.994 0 111.671 0C98.3478 0 87.3418 10.9929 87.3418 24.3V56.7C87.3418 70.0071 98.3478 81 111.671 81C124.994 81 136 70.0071 136 56.7V24.3ZM119.781 56.7C119.781 61.0971 116.073 64.8 111.671 64.8C107.269 64.8 103.561 61.0971 103.561 56.7V24.3C103.561 19.9029 107.269 16.2 111.671 16.2C116.073 16.2 119.781 19.9029 119.781 24.3V56.7Z" fill="#EB5757"/>
<path d="M6.33333 45H12.6667V38.1755C16.331 36.8735 19 33.3714 19 29.2857C19 24.1225 14.7024 19.8571 9.5 19.8571C7.78095 19.8571 6.33333 18.4204 6.33333 16.7143C6.33333 15.0082 7.78095 13.5714 9.5 13.5714C11.219 13.5714 12.6667 15.0082 12.6667 16.7143H19C19 12.6735 16.331 9.17143 12.6667 7.86939V1H6.33333V7.86939C2.66905 9.17143 0 12.6735 0 16.7143C0 21.8776 4.29762 26.1429 9.5 26.1429C11.219 26.1429 12.6667 27.5796 12.6667 29.2857C12.6667 30.9918 11.219 32.4286 9.5 32.4286C7.78095 32.4286 6.33333 30.9918 6.33333 29.2857H0C0 33.3714 2.66905 36.8735 6.33333 38.1755V45Z" fill="#EB5757"/>
</svg>
