<svg width="418" height="213" viewBox="0 0 418 213" fill="none" xmlns="http://www.w3.org/2000/svg">
<path d="M98.8161 74.008C98.8161 52.9839 85.0921 34.88 66.1121 27.872V0.42395H59.6881V32.544C78.0841 36.9239 92.3921 53.86 92.3921 74.008H98.8161ZM26.9841 139.416C26.9841 151.972 37.2041 162.192 49.7601 162.192C62.3161 162.192 72.5361 151.972 72.5361 139.416C72.5361 126.86 62.3161 116.64 49.7601 116.64C26.4001 116.64 7.1281 97.368 7.1281 74.008C7.1281 53.86 21.4361 36.9239 39.8321 32.544V0.42395H33.4081V27.872C14.4281 34.88 0.704102 52.9839 0.704102 74.008C0.704102 100.872 22.8961 123.064 49.7601 123.064C58.5201 123.064 66.1121 130.656 66.1121 139.416C66.1121 148.176 58.5201 155.768 49.7601 155.768C41.0001 155.768 33.4081 148.176 33.4081 139.416H26.9841ZM66.1121 213V185.552C85.0921 178.836 98.8161 160.732 98.8161 139.416C98.8161 112.552 76.6241 90.36 49.7601 90.36C41.0001 90.36 33.4081 82.768 33.4081 74.008C33.4081 65.2479 41.0001 57.656 49.7601 57.656C58.5201 57.656 66.1121 65.2479 66.1121 74.008H72.5361C72.5361 61.4519 62.3161 51.232 49.7601 51.232C37.2041 51.232 26.9841 61.4519 26.9841 74.008C26.9841 86.564 37.2041 96.784 49.7601 96.784C73.1201 96.784 92.3921 116.056 92.3921 139.416C92.3921 159.564 78.0841 176.5 59.6881 180.88V213H66.1121ZM39.8321 213V180.88C21.4361 176.5 7.1281 159.564 7.1281 139.416H0.704102C0.704102 160.732 14.4281 178.836 33.4081 185.552V213H39.8321ZM46.5481 213H52.9721V175.332C71.3681 173.58 85.6761 158.396 85.6761 139.416C85.6761 119.56 69.6161 103.5 49.7601 103.5C33.4081 103.5 20.2681 90.36 20.2681 74.008C20.2681 57.656 33.4081 44.516 49.7601 44.516C66.1121 44.516 79.2521 57.656 79.2521 74.008H85.6761C85.6761 55.32 71.3681 39.8439 52.9721 38.3839V0.42395H46.5481V38.3839C28.1521 39.8439 13.8441 55.32 13.8441 74.008C13.8441 93.864 29.9041 109.924 49.7601 109.924C66.1121 109.924 79.2521 123.064 79.2521 139.416C79.2521 155.768 66.1121 168.908 49.7601 168.908C33.4081 168.908 20.2681 155.768 20.2681 139.416H13.8441C13.8441 158.396 28.1521 173.58 46.5481 175.332V213Z" fill="black"/>
<path d="M202.935 213L284.695 8.59995H151.835V16.7759H273.307L194.759 213H202.935ZM170.231 213L238.851 41.304H151.835V49.48H227.463L162.055 213H170.231ZM151.835 33.1279H250.531L178.407 213H186.583L261.919 24.9519H151.835V33.1279Z" fill="black"/>
<path d="M302.874 69.92C302.874 40.72 326.818 16.7759 356.018 16.7759C385.218 16.7759 409.162 40.72 409.162 69.92V151.68C409.162 180.88 385.218 204.824 356.018 204.824C326.818 204.824 302.874 180.88 302.874 151.68V69.92ZM384.634 69.92C384.634 54.152 371.786 41.304 356.018 41.304C340.25 41.304 327.402 54.152 327.402 69.92V151.68C327.402 167.448 340.25 180.296 356.018 180.296C371.786 180.296 384.634 167.448 384.634 151.68V69.92ZM417.338 69.92C417.338 36.34 389.598 8.59995 356.018 8.59995C322.438 8.59995 294.698 36.34 294.698 69.92V151.68C294.698 185.26 322.438 213 356.018 213C389.598 213 417.338 185.26 417.338 151.68V69.92ZM376.458 151.68C376.458 162.776 367.114 172.12 356.018 172.12C344.922 172.12 335.578 162.776 335.578 151.68V69.92C335.578 58.824 344.922 49.48 356.018 49.48C367.114 49.48 376.458 58.824 376.458 69.92V151.68ZM392.81 151.68C392.81 172.12 376.458 188.472 356.018 188.472C335.578 188.472 319.226 172.12 319.226 151.68V69.92C319.226 49.48 335.578 33.1279 356.018 33.1279C376.458 33.1279 392.81 49.48 392.81 69.92V151.68ZM400.986 69.92C400.986 45.0999 380.838 24.9519 356.018 24.9519C331.198 24.9519 311.05 45.0999 311.05 69.92V151.68C311.05 176.5 331.198 196.648 356.018 196.648C380.838 196.648 400.986 176.5 400.986 151.68V69.92Z" fill="black"/>
</svg>
