<svg width="136" height="81" viewBox="0 0 136 81" fill="none" xmlns="http://www.w3.org/2000/svg">
<path d="M26 56.7C26 70.0071 36.9743 81 50.2589 81C63.5436 81 74.5179 70.0071 74.5179 56.7C74.5179 43.3929 63.5436 32.4 50.2589 32.4C47.4865 32.4 44.714 32.8629 42.1726 33.7886V24.3C42.1726 19.9029 45.8692 16.2 50.2589 16.2C54.6486 16.2 58.3452 19.9029 58.3452 24.3H74.5179C74.5179 10.9929 63.5436 0 50.2589 0C36.9743 0 26 10.9929 26 24.3V56.7ZM42.1726 56.7C42.1726 52.3029 45.8692 48.6 50.2589 48.6C54.6486 48.6 58.3452 52.3029 58.3452 56.7C58.3452 61.0971 54.6486 64.8 50.2589 64.8C45.8692 64.8 42.1726 61.0971 42.1726 56.7Z" fill="#EB5757"/>
<path d="M136 24.3C136 10.9929 125.026 0 111.741 0C98.4564 0 87.4821 10.9929 87.4821 24.3V56.7C87.4821 70.0071 98.4564 81 111.741 81C125.026 81 136 70.0071 136 56.7V24.3ZM119.827 56.7C119.827 61.0971 116.131 64.8 111.741 64.8C107.351 64.8 103.655 61.0971 103.655 56.7V24.3C103.655 19.9029 107.351 16.2 111.741 16.2C116.131 16.2 119.827 19.9029 119.827 24.3V56.7Z" fill="#EB5757"/>
<path d="M6.33333 45H12.6667V38.1755C16.331 36.8735 19 33.3714 19 29.2857C19 24.1225 14.7024 19.8571 9.5 19.8571C7.78095 19.8571 6.33333 18.4204 6.33333 16.7143C6.33333 15.0082 7.78095 13.5714 9.5 13.5714C11.219 13.5714 12.6667 15.0082 12.6667 16.7143H19C19 12.6735 16.331 9.17143 12.6667 7.86939V1H6.33333V7.86939C2.66905 9.17143 0 12.6735 0 16.7143C0 21.8776 4.29762 26.1429 9.5 26.1429C11.219 26.1429 12.6667 27.5796 12.6667 29.2857C12.6667 30.9918 11.219 32.4286 9.5 32.4286C7.78095 32.4286 6.33333 30.9918 6.33333 29.2857H0C0 33.3714 2.66905 36.8735 6.33333 38.1755V45Z" fill="#EB5757"/>
</svg>
