<svg width="177" height="234" viewBox="0 0 177 234" fill="none" xmlns="http://www.w3.org/2000/svg">
<path d="M102.244 79.596C87.968 80.592 76.016 86.236 63.732 94.536C74.688 65.652 89.296 50.048 105.232 48.72C115.192 48.056 125.484 49.384 134.116 67.312L176.28 43.076C166.32 18.176 142.748 -1.41201 111.54 0.911995C34.516 6.22399 6.96 86.9 1.316 157.948C-2.336 204.76 25.552 236.632 70.704 233.644C112.204 230.656 147.396 196.46 152.708 139.688C157.024 92.212 130.796 77.604 102.244 79.596ZM103.24 155.956C99.588 173.884 90.292 191.148 71.368 192.476C52.776 193.804 48.128 178.2 52.112 159.608C56.096 141.348 66.72 122.756 86.308 121.428C104.568 120.1 107.888 134.376 103.24 155.956Z" fill="#EB5757"/>
</svg>
