<svg width="228" height="83" viewBox="0 0 228 83" fill="none" xmlns="http://www.w3.org/2000/svg">
<path d="M29.0275 27.864L54.3115 26.1L57.5455 12.576L16.2875 15.418L0.0195312 82.058L16.0915 80.98L23.1475 51.874L46.2755 50.306L49.5095 36.684L26.4795 38.252L29.0275 27.864Z" fill="#EB5757"/>
<path d="M90.8426 10.028L76.1426 10.812L76.2406 10.91L66.9306 11.4L49.4866 77.746L65.5586 76.864L73.3006 47.366L78.4946 47.072L89.6666 75.296L105.053 74.512L94.3706 45.994C107.013 44.23 113.285 37.076 113.677 24.63C114.069 12.576 104.759 9.24401 90.8426 10.028ZM90.4506 34.724L76.4366 35.508L79.5726 23.258L92.9006 22.572C96.8206 22.376 98.2906 23.454 98.3886 26.394C98.6826 31 95.2526 34.528 90.4506 34.724Z" fill="#EB5757"/>
<path d="M142.051 20.22L168.903 18.358L171.941 4.63801L129.409 7.67602L113.141 74.316L159.201 71.082L162.141 57.46L132.447 59.616L136.367 43.74L160.279 41.976L163.513 28.452L139.699 30.118L142.051 20.22Z" fill="#EB5757"/>
<path d="M197.271 16.202L224.123 14.34L227.161 0.718018L184.629 3.65801L168.361 70.298L214.421 67.064L217.361 53.54L187.667 55.598L191.587 39.722L215.499 38.056L218.733 24.434L194.919 26.1L197.271 16.202Z" fill="#EB5757"/>
</svg>
