<svg width="330" height="114" viewBox="0 0 330 114" fill="none" xmlns="http://www.w3.org/2000/svg">
<path d="M57.04 45.96H23.02V23.28H68.38V18.744H18.484V50.496H57.04V45.96ZM4.876 114V5.13599H68.38V0.599992H0.34V114H4.876ZM23.02 114V68.64H57.04V64.104H18.484V114H23.02ZM9.412 114H13.948V59.568H57.04V55.032H13.948V14.208H68.38V9.67199H9.412V114ZM103.597 18.744V50.496H119.473C128.221 50.496 135.349 43.368 135.349 34.62C135.349 25.872 128.221 18.744 119.473 18.744H103.597ZM108.133 114V68.64H118.339L136.483 114H141.019L121.093 64.104H103.597V114H108.133ZM89.9893 114V5.13599H119.473C135.673 5.13599 148.957 18.42 148.957 34.62C148.957 45.96 142.477 55.68 133.243 60.702L154.627 114H159.163L138.589 62.646C147.499 56.49 153.493 46.284 153.493 34.62C153.493 15.99 138.103 0.599992 119.473 0.599992H85.4533V114H89.9893ZM119.473 23.28C125.629 23.28 130.813 28.464 130.813 34.62C130.813 40.776 125.629 45.96 119.473 45.96H108.133V23.28H119.473ZM144.421 34.62C144.421 20.85 133.243 9.67199 119.473 9.67199H94.5253V114H99.0613V59.568H119.473C120.769 59.568 122.389 59.406 123.685 59.244L145.555 114H150.091L127.735 58.11C137.455 54.708 144.421 45.474 144.421 34.62ZM119.473 14.208C130.813 14.208 139.885 23.28 139.885 34.62C139.885 45.96 130.813 55.032 119.473 55.032H99.0613V14.208H119.473ZM232.804 45.96H198.784V23.28H244.144V18.744H194.248V50.496H232.804V45.96ZM244.144 109.464H180.64V5.13599H244.144V0.599992H176.104V114H244.144V109.464ZM244.144 91.32H198.784V68.64H232.804V64.104H194.248V95.856H244.144V91.32ZM185.176 104.928H244.144V100.392H189.712V59.568H232.804V55.032H189.712V14.208H244.144V9.67199H185.176V104.928ZM317.917 45.96H283.897V23.28H329.257V18.744H279.361V50.496H317.917V45.96ZM329.257 109.464H265.753V5.13599H329.257V0.599992H261.217V114H329.257V109.464ZM329.257 91.32H283.897V68.64H317.917V64.104H279.361V95.856H329.257V91.32ZM270.289 104.928H329.257V100.392H274.825V59.568H317.917V55.032H274.825V14.208H329.257V9.67199H270.289V104.928Z" fill="black"/>
</svg>
