<svg id="Слой_1" data-name="Слой 1" xmlns="http://www.w3.org/2000/svg" viewBox="0 0 139 32"><title>Монтажная область 1 копия</title><path d="M37,27,16,6l-5,5L31.86,32ZM32,0V32h7V0Z" style="fill:#3451a8"/><polygon points="32 0 0 32 10 32 37 5 32 0" style="fill:#3451a8"/><path d="M67,0,44,22V32L77,0Zm9,25H44v7H76Z" style="fill:#3451a8"/><path d="M83.11,25.19V32H110V25ZM87.91,0,82,4l28,28V22ZM88,0H81V32h7Z" style="fill:#3451a8"/><path d="M106,0V10l22,22h11Zm32,0H106V7h32Z" style="fill:#3451a8"/></svg>