<svg id="Слой_1" data-name="Слой 1" xmlns="http://www.w3.org/2000/svg" viewBox="0 0 3023 1217"><title>Монтажная область 1 копия</title><path d="M802,867,350,415,245,520,697,972ZM699,272V972H846V272Z" style="fill:#3451a8"/><polygon points="700 272 0 972 210 972 805 377 700 272" style="fill:#3451a8"/><path d="M1462,272,972,762V972l700-700Zm210,553H973V972h699Z" style="fill:#3451a8"/><path d="M1818,823V972h595V823Zm105-551-48,162,538,538V762Zm0,0H1776V972h147Z" style="fill:#3451a8"/><path d="M2323,272V482l490,490h210Zm700,0H2323V419h700Z" style="fill:#3451a8"/></svg>