<?xml version="1.0" encoding="utf-8"?>
<!-- Generator: Adobe Illustrator 23.0.1, SVG Export Plug-In . SVG Version: 6.00 Build 0)  -->
<svg version="1.1" id="Слой_1" xmlns="http://www.w3.org/2000/svg" xmlns:xlink="http://www.w3.org/1999/xlink" x="0px" y="0px"
	 viewBox="0 0 3430 1217" style="enable-background:new 0 0 3430 1217;" xml:space="preserve">
<path d="M802,867L350,415L245,520l452,452L802,867z M699,272v700h147V272H699z"/>
<polygon points="700,272 0,972 210,972 805,377 "/>
<path d="M1462,272L972,762v210l700-700H1462z M1672,825H973v147h699V825z"/>
<path d="M1875,607l-6-607l-177,606L1875,607z M1969,439h-166l1,344h166L1969,439z M1889,610l6,607l162-606L1889,610z"/>
<path d="M2225,823v149h595V823H2225z M2330,272l-48,162l538,538V762L2330,272z M2330,272h-147v700h147V272z"/>
<path d="M2730,272v210l490,490h210L2730,272z M3430,272h-700v147h700V272z"/>
</svg>
