<svg width="632" height="96" viewBox="0 0 632 96" fill="none" xmlns="http://www.w3.org/2000/svg">
<path d="M63.5985 6.26163V45.0665H37.4185L63.5985 6.26163ZM79.3226 4H47.0299L19.2816 45.0665H27.6061L0.0185547 85.7362H18.0349L37.0164 57.8824H63.6387V85.7362H79.3226V4Z" fill="#262626"/>
<path d="M84.792 44.8681C84.792 20.3472 102.969 4 130.275 4V17.2127C112.098 17.2127 99.5107 29.6715 99.5107 44.8681C99.5107 60.0647 112.098 72.5235 130.275 72.5235V85.7362C102.969 85.7759 84.792 69.4286 84.792 44.8681Z" fill="#262626"/>
<path d="M240.392 44.8681C240.392 69.389 225.03 85.7362 194.909 85.7362H176.731V4H194.909C225.191 4 240.392 20.3472 240.392 44.8681ZM225.191 44.8681C225.191 25.7037 212.523 17.2127 191.41 17.2127V72.5235C212.563 72.5632 225.191 62.3263 225.191 44.8681Z" fill="#262626"/>
<path d="M245.58 44.8681C245.58 20.3472 263.757 4 291.063 4V17.2127C272.886 17.2127 260.298 29.6715 260.298 44.8681C260.298 60.0647 272.886 72.5235 291.063 72.5235V85.7362C263.757 85.7759 245.58 69.4286 245.58 44.8681Z" fill="#262626"/>
<path d="M156.452 4H149.041V85.7759H156.452V4Z" fill="#262626"/>
<path d="M304.066 36H307.72V23.316C307.72 21.132 308.434 19.452 309.778 18.108C310.954 16.932 312.34 16.386 313.978 16.386C315.49 16.386 316.666 16.806 317.464 17.604C318.262 18.402 318.682 19.536 318.682 21.006V36H322.336V21.006C322.336 18.36 321.622 16.386 320.278 15.084C318.976 13.782 317.128 13.11 314.86 13.11C312.676 13.11 310.744 13.866 309.316 15.294C308.812 15.798 308.35 16.428 307.972 17.142H307.72V3.45H304.066V36ZM333.811 36H338.893L346.621 13.74H342.673L336.415 32.598H336.289L330.115 13.74H325.915L333.811 36ZM358.234 36.63C360.502 36.63 362.728 35.496 364.324 33.858C364.702 33.522 365.038 33.144 365.332 32.724V36H368.566V13.74H364.954V16.554C364.744 16.218 364.492 15.924 364.198 15.672C362.602 14.076 360.208 13.11 358.108 13.11C355.462 13.11 353.362 14.034 351.85 15.588C349.624 17.814 348.574 21.174 348.574 24.66C348.574 28.23 349.666 31.8 351.976 34.11C353.53 35.664 355.588 36.63 358.234 36.63ZM358.738 33.312C357.016 33.312 355.672 32.682 354.664 31.674C353.026 30.036 352.27 27.39 352.27 24.87C352.27 22.35 352.984 19.704 354.622 18.024C355.63 17.016 356.974 16.428 358.696 16.428C360.418 16.428 361.72 17.058 362.686 18.024C364.24 19.578 364.954 22.056 364.954 24.408C364.954 27.474 364.24 30.204 362.644 31.758C361.678 32.724 360.376 33.312 358.738 33.312ZM382.739 36.588C385.553 36.588 387.863 35.748 389.585 34.068C391.055 32.556 392.063 30.372 392.483 27.516H388.661C388.409 29.448 387.779 30.96 386.771 31.968C385.847 32.934 384.503 33.438 382.739 33.438C380.975 33.438 379.505 32.85 378.371 31.716C376.943 30.246 376.061 27.894 376.061 24.87C376.061 21.846 376.901 19.494 378.371 18.024C379.505 16.932 381.017 16.302 382.739 16.302C384.461 16.302 385.763 16.764 386.729 17.73C387.695 18.696 388.283 20.166 388.577 22.098H392.273C391.853 19.242 390.887 17.1 389.375 15.588C387.779 13.95 385.553 13.152 382.739 13.152C379.841 13.152 377.363 14.16 375.557 16.008C373.499 18.024 372.281 21.09 372.281 24.87C372.281 28.65 373.499 31.716 375.557 33.732C377.363 35.58 379.841 36.588 382.739 36.588ZM416.043 36.546C420.369 36.546 423.141 35.034 425.283 32.976L427.761 36H432.297L427.425 30.036C428.475 28.23 430.029 25.668 430.449 21.09H426.837C426.585 23.652 426.081 25.416 425.031 27.096L418.605 19.242C420.411 18.318 421.965 17.31 423.099 16.176C424.401 14.874 425.157 13.362 425.199 11.472C425.199 9.498 424.485 7.818 423.309 6.642C421.965 5.298 419.991 4.542 417.765 4.542C415.497 4.542 413.355 5.298 411.885 6.768C410.667 7.986 409.953 9.624 409.953 11.682C409.953 13.74 410.919 15.882 413.271 18.318C411.255 19.242 409.659 20.292 408.441 21.468C406.803 23.148 405.921 25.122 405.921 27.768C405.921 30.204 406.845 32.178 408.315 33.648C410.163 35.496 413.019 36.546 416.043 36.546ZM416.589 16.806C414.699 14.958 413.523 13.404 413.523 11.598C413.523 10.422 413.943 9.54 414.615 8.868C415.371 8.112 416.505 7.692 417.723 7.692C418.899 7.692 419.949 8.112 420.621 8.826C421.293 9.498 421.671 10.422 421.671 11.472C421.671 12.648 421.209 13.572 420.411 14.37C419.529 15.294 418.227 16.008 416.631 16.806H416.589ZM416.253 33.186C414.237 33.186 412.515 32.598 411.381 31.464C410.415 30.498 409.869 29.196 409.869 27.516C409.869 25.794 410.415 24.408 411.633 23.19C412.473 22.308 413.691 21.552 415.287 20.754L423.057 30.246C422.847 30.498 422.637 30.75 422.427 30.918C420.873 32.472 418.731 33.186 416.253 33.186ZM454.087 36.63C456.355 36.63 458.581 35.496 460.177 33.858C460.555 33.522 460.891 33.144 461.185 32.724V36H464.419V13.74H460.807V16.554C460.597 16.218 460.345 15.924 460.051 15.672C458.455 14.076 456.061 13.11 453.961 13.11C451.315 13.11 449.215 14.034 447.703 15.588C445.477 17.814 444.427 21.174 444.427 24.66C444.427 28.23 445.519 31.8 447.829 34.11C449.383 35.664 451.441 36.63 454.087 36.63ZM454.591 33.312C452.869 33.312 451.525 32.682 450.517 31.674C448.879 30.036 448.123 27.39 448.123 24.87C448.123 22.35 448.837 19.704 450.475 18.024C451.483 17.016 452.827 16.428 454.549 16.428C456.271 16.428 457.573 17.058 458.539 18.024C460.093 19.578 460.807 22.056 460.807 24.408C460.807 27.474 460.093 30.204 458.497 31.758C457.531 32.724 456.229 33.312 454.591 33.312ZM469.851 45.45H473.505V32.514C473.883 33.228 474.303 33.816 474.849 34.32C476.445 35.916 478.587 36.588 480.729 36.588C483.207 36.588 485.433 35.622 487.113 33.942C489.171 31.842 490.473 28.734 490.473 24.87C490.473 21.006 489.171 17.856 487.113 15.798C485.391 14.118 483.165 13.152 480.729 13.152C478.545 13.152 476.403 13.824 474.849 15.42C474.345 15.924 473.841 16.512 473.505 17.226V13.74H469.851V45.45ZM480.099 33.438C478.419 33.438 476.907 32.85 475.773 31.716C474.345 30.288 473.463 28.02 473.463 24.87C473.463 21.72 474.345 19.452 475.773 18.024C476.907 16.848 478.419 16.302 480.099 16.302C481.779 16.302 483.249 16.848 484.425 18.024C485.811 19.41 486.693 21.678 486.693 24.87C486.693 28.02 485.853 30.33 484.425 31.716C483.249 32.892 481.737 33.438 480.099 33.438ZM495.076 45.45H498.73V32.514C499.108 33.228 499.528 33.816 500.074 34.32C501.67 35.916 503.812 36.588 505.954 36.588C508.432 36.588 510.658 35.622 512.338 33.942C514.396 31.842 515.698 28.734 515.698 24.87C515.698 21.006 514.396 17.856 512.338 15.798C510.616 14.118 508.39 13.152 505.954 13.152C503.77 13.152 501.628 13.824 500.074 15.42C499.57 15.924 499.066 16.512 498.73 17.226V13.74H495.076V45.45ZM505.324 33.438C503.644 33.438 502.132 32.85 500.998 31.716C499.57 30.288 498.688 28.02 498.688 24.87C498.688 21.72 499.57 19.452 500.998 18.024C502.132 16.848 503.644 16.302 505.324 16.302C507.004 16.302 508.474 16.848 509.65 18.024C511.036 19.41 511.918 21.678 511.918 24.87C511.918 28.02 511.078 30.33 509.65 31.716C508.474 32.892 506.962 33.438 505.324 33.438ZM520.3 36H523.954V3.45H520.3V36ZM530.062 8.91H533.758V5.13H530.062V8.91ZM530.062 36H533.716V13.74H530.062V36ZM548.013 36.63C550.281 36.63 552.507 35.496 554.103 33.858C554.481 33.522 554.817 33.144 555.111 32.724V36H558.345V13.74H554.733V16.554C554.523 16.218 554.271 15.924 553.977 15.672C552.381 14.076 549.987 13.11 547.887 13.11C545.241 13.11 543.141 14.034 541.629 15.588C539.403 17.814 538.353 21.174 538.353 24.66C538.353 28.23 539.445 31.8 541.755 34.11C543.309 35.664 545.367 36.63 548.013 36.63ZM548.517 33.312C546.795 33.312 545.451 32.682 544.443 31.674C542.805 30.036 542.049 27.39 542.049 24.87C542.049 22.35 542.763 19.704 544.401 18.024C545.409 17.016 546.753 16.428 548.475 16.428C550.197 16.428 551.499 17.058 552.465 18.024C554.019 19.578 554.733 22.056 554.733 24.408C554.733 27.474 554.019 30.204 552.423 31.758C551.457 32.724 550.155 33.312 548.517 33.312ZM563.777 36H567.431V23.316C567.431 21.132 568.145 19.452 569.489 18.108C570.665 16.932 572.051 16.386 573.689 16.386C575.201 16.386 576.377 16.806 577.175 17.604C577.973 18.402 578.393 19.536 578.393 21.006V36H582.047V21.006C582.047 18.36 581.333 16.386 579.989 15.084C578.687 13.782 576.839 13.11 574.571 13.11C572.387 13.11 570.371 13.908 568.901 15.336C568.355 15.882 567.851 16.596 567.473 17.352H567.221V13.74H563.777V36ZM597.045 36.588C599.859 36.588 602.169 35.748 603.891 34.068C605.361 32.556 606.369 30.372 606.789 27.516H602.967C602.715 29.448 602.085 30.96 601.077 31.968C600.153 32.934 598.809 33.438 597.045 33.438C595.281 33.438 593.811 32.85 592.677 31.716C591.249 30.246 590.367 27.894 590.367 24.87C590.367 21.846 591.207 19.494 592.677 18.024C593.811 16.932 595.323 16.302 597.045 16.302C598.767 16.302 600.069 16.764 601.035 17.73C602.001 18.696 602.589 20.166 602.883 22.098H606.579C606.159 19.242 605.193 17.1 603.681 15.588C602.085 13.95 599.859 13.152 597.045 13.152C594.147 13.152 591.669 14.16 589.863 16.008C587.805 18.024 586.587 21.09 586.587 24.87C586.587 28.65 587.805 31.716 589.863 33.732C591.669 35.58 594.147 36.588 597.045 36.588ZM620.094 36.588C623.034 36.588 625.344 35.79 627.066 34.11C628.368 32.766 629.334 30.918 629.922 28.482H626.142C625.722 29.994 625.134 31.17 624.336 32.01C623.37 32.976 622.068 33.438 620.262 33.438C618.498 33.438 617.028 32.808 615.852 31.674C614.508 30.33 613.71 28.23 613.542 25.584H629.88C629.88 20.712 628.704 17.562 626.772 15.63C625.008 13.866 622.698 13.152 620.094 13.152C617.238 13.152 614.76 14.16 612.954 15.966C610.896 17.982 609.72 21.006 609.72 24.87C609.72 28.65 610.812 31.548 612.996 33.732C614.844 35.58 617.196 36.588 620.094 36.588ZM613.626 22.56C613.878 20.544 614.592 19.032 615.642 17.982C616.776 16.848 618.288 16.302 620.094 16.302C621.774 16.302 623.202 16.806 624.21 17.814C625.26 18.864 625.89 20.418 626.1 22.56H613.626ZM304.066 84H307.72V65.142H315.868V61.74H304.066V84ZM328.063 84.588C331.003 84.588 333.313 83.79 335.035 82.11C336.337 80.766 337.303 78.918 337.891 76.482H334.111C333.691 77.994 333.103 79.17 332.305 80.01C331.339 80.976 330.037 81.438 328.231 81.438C326.467 81.438 324.997 80.808 323.821 79.674C322.477 78.33 321.679 76.23 321.511 73.584H337.849C337.849 68.712 336.673 65.562 334.741 63.63C332.977 61.866 330.667 61.152 328.063 61.152C325.207 61.152 322.729 62.16 320.923 63.966C318.865 65.982 317.689 69.006 317.689 72.87C317.689 76.65 318.781 79.548 320.965 81.732C322.813 83.58 325.165 84.588 328.063 84.588ZM321.595 70.56C321.847 68.544 322.561 67.032 323.611 65.982C324.745 64.848 326.257 64.302 328.063 64.302C329.743 64.302 331.171 64.806 332.179 65.814C333.229 66.864 333.859 68.418 334.069 70.56H321.595ZM342.457 93.45H346.111V80.514C346.489 81.228 346.909 81.816 347.455 82.32C349.051 83.916 351.193 84.588 353.335 84.588C355.813 84.588 358.039 83.622 359.719 81.942C361.777 79.842 363.079 76.734 363.079 72.87C363.079 69.006 361.777 65.856 359.719 63.798C357.997 62.118 355.771 61.152 353.335 61.152C351.151 61.152 349.009 61.824 347.455 63.42C346.951 63.924 346.447 64.512 346.111 65.226V61.74H342.457V93.45ZM352.705 81.438C351.025 81.438 349.513 80.85 348.379 79.716C346.951 78.288 346.069 76.02 346.069 72.87C346.069 69.72 346.951 67.452 348.379 66.024C349.513 64.848 351.025 64.302 352.705 64.302C354.385 64.302 355.855 64.848 357.031 66.024C358.417 67.41 359.299 69.678 359.299 72.87C359.299 76.02 358.459 78.33 357.031 79.716C355.855 80.892 354.343 81.438 352.705 81.438ZM375.829 84.63C378.097 84.63 380.323 83.496 381.919 81.858C382.297 81.522 382.633 81.144 382.927 80.724V84H386.161V61.74H382.549V64.554C382.339 64.218 382.087 63.924 381.793 63.672C380.197 62.076 377.803 61.11 375.703 61.11C373.057 61.11 370.957 62.034 369.445 63.588C367.219 65.814 366.169 69.174 366.169 72.66C366.169 76.23 367.261 79.8 369.571 82.11C371.125 83.664 373.183 84.63 375.829 84.63ZM376.333 81.312C374.611 81.312 373.267 80.682 372.259 79.674C370.621 78.036 369.865 75.39 369.865 72.87C369.865 70.35 370.579 67.704 372.217 66.024C373.225 65.016 374.569 64.428 376.291 64.428C378.013 64.428 379.315 65.058 380.281 66.024C381.835 67.578 382.549 70.056 382.549 72.408C382.549 75.474 381.835 78.204 380.239 79.758C379.273 80.724 377.971 81.312 376.333 81.312ZM391.593 56.91H395.289V53.13H391.593V56.91ZM391.593 84H395.247V61.74H391.593V84ZM401.396 84H405.05V65.142H413.198V61.74H401.396V84ZM426.703 84H430.357V51.45H426.703V84ZM436.464 84H440.118V51.45H436.464V84ZM455.172 84.588C457.986 84.588 460.296 83.748 462.018 82.068C463.488 80.556 464.496 78.372 464.916 75.516H461.094C460.842 77.448 460.212 78.96 459.204 79.968C458.28 80.934 456.936 81.438 455.172 81.438C453.408 81.438 451.938 80.85 450.804 79.716C449.376 78.246 448.494 75.894 448.494 72.87C448.494 69.846 449.334 67.494 450.804 66.024C451.938 64.932 453.45 64.302 455.172 64.302C456.894 64.302 458.196 64.764 459.162 65.73C460.128 66.696 460.716 68.166 461.01 70.098H464.706C464.286 67.242 463.32 65.1 461.808 63.588C460.212 61.95 457.986 61.152 455.172 61.152C452.274 61.152 449.796 62.16 447.99 64.008C445.932 66.024 444.714 69.09 444.714 72.87C444.714 76.65 445.932 79.716 447.99 81.732C449.796 83.58 452.274 84.588 455.172 84.588Z" fill="black"/>
</svg>
