<svg width="112" height="127" viewBox="0 0 112 127" fill="none" xmlns="http://www.w3.org/2000/svg">
<path d="M19.1731 14.2332V5.54854H15.2471L11.1597 1.47425H4.92101L0 6.21866H7.5563V13.2415H0L4.92101 18.1467H11.1597L15.2471 14.2332H19.1731ZM57.0622 14.2332H64.2689L68.3563 18.1467H74.595L79.516 13.2415H71.9597V6.21866H79.516L74.6219 1.47425H68.3832L64.2689 5.54854H57.0622V14.2332ZM57.0622 17.4766V31.0397L63.9462 23.8561V15.359H60.6656H57.0622V17.4766V17.4766ZM28.2084 0H29.3647V12.5981H28.2084V0ZM37.2168 0H38.3731V12.5981H37.2168V0ZM46.4134 0H47.5697V12.5981H46.4134V0ZM20.3294 0V29.0829L25.0891 33.9882H55.9059V0H20.3294ZM25.0891 29.0829V127H55.9059V29.0829H25.0891ZM45.4185 80.7353V127H72.3092V80.7353H45.4185ZM73.6269 80.7353V127H85.4319V80.7353H73.6269ZM86.5882 80.7353V127H112V80.7353H86.5882Z" fill="#002868"/>
</svg>
