<svg width="344" height="189" viewBox="0 0 344 189" fill="none" xmlns="http://www.w3.org/2000/svg">
<path d="M0 25L344 0V164L0 189V25Z" fill="#EFEFEF"/>
<path d="M25.36 75.215L15.48 79.31C14.96 88.215 20.29 95.82 32.12 94.975C42.65 94.26 47.265 88.8 48.89 83.015C53.7 65.53 29.975 68.455 31.6 61.24C32.055 59.42 33.745 58.575 36.605 58.38C41.74 57.99 44.015 60.005 43.82 63.84L52.4 59.81C50.515 52.66 44.99 49.02 36.735 49.605C26.985 50.32 23.605 54.48 22.5 59.29C18.47 76.19 42.325 72.615 39.4 81.585C38.75 83.795 37.19 85.485 33.485 85.745C25.88 86.265 23.8 81.39 25.36 75.215ZM76.2768 84.38L76.9918 90.62L87.0018 90.1L81.4118 46.94L70.6218 47.525L46.0518 92.245L57.1668 91.66L60.6118 85.225L76.2768 84.38ZM65.4218 76.125L70.8168 65.855L73.4168 56.82L75.4968 75.605L65.4218 76.125ZM148.733 43.365L133.458 44.47L117.468 74.435L116.883 61.11L115.973 45.64L101.998 46.615L91.0125 90.88L101.023 90.165L106.353 65.985L107.783 54.87L108.953 75.41L109.863 89.58L118.508 88.93L131.833 64.88L137.618 52.985L133.523 66.31L127.608 88.28L137.748 87.63L148.733 43.365ZM166.556 51.685L184.366 50.45L186.381 41.415L158.171 43.365L147.381 87.565L177.931 85.42L179.881 76.45L160.186 77.815L162.786 67.285L178.646 66.18L180.791 57.145L164.996 58.25L166.556 51.685ZM183.357 68L201.037 66.765L203.312 57.73L185.632 58.965L183.357 68ZM226.671 37.32L212.761 38.295L201.971 82.495L219.846 81.26C233.951 80.285 243.506 69.69 244.286 54.09C244.936 41.805 238.956 36.475 226.671 37.32ZM233.171 56.82C231.936 67.415 227.386 71.835 216.336 72.615L214.776 72.745L221.211 46.55L224.071 46.355C231.611 45.835 234.081 48.63 233.171 56.82ZM269.823 71.445L270.668 77.62L280.613 76.905L274.308 33.875L263.453 34.655L239.728 79.765L250.843 78.985L254.158 72.485L269.823 71.445ZM258.773 63.32L264.038 52.985L266.508 43.885L268.913 62.605L258.773 63.32ZM307.894 61.5L327.264 31.145L315.629 31.925L304.254 50.385L298.209 33.16L287.874 33.875L297.689 60.72L293.659 76.905L304.319 76.19L307.894 61.5ZM25.36 135.215L15.48 139.31C14.96 148.215 20.29 155.82 32.12 154.975C42.65 154.26 47.265 148.8 48.89 143.015C53.7 125.53 29.975 128.455 31.6 121.24C32.055 119.42 33.745 118.575 36.605 118.38C41.74 117.99 44.015 120.005 43.82 123.84L52.4 119.81C50.515 112.66 44.99 109.02 36.735 109.605C26.985 110.32 23.605 114.48 22.5 119.29C18.47 136.19 42.325 132.615 39.4 141.585C38.75 143.795 37.19 145.485 33.485 145.745C25.88 146.265 23.8 141.39 25.36 135.215ZM71.7918 116.95L89.5368 115.975L91.7468 107.005L63.5368 108.435L51.9668 152.505L82.5168 150.88L84.6618 141.91L64.9018 142.95L67.6968 132.42L83.6218 131.64L85.8968 122.67L70.1018 123.45L71.7918 116.95ZM115.763 104.795L106.078 105.51V105.575L99.9028 105.965L89.1128 150.23L99.7728 149.45L104.583 129.755L108.028 129.56L115.763 148.15L125.903 147.435L118.493 128.65C126.878 127.285 130.973 122.54 131.103 114.22C131.168 106.29 124.993 104.145 115.763 104.795ZM115.828 121.24L106.468 121.89L108.483 113.7L117.258 113.115C119.858 112.92 120.833 113.635 120.963 115.585C121.158 118.64 119.013 120.98 115.828 121.24ZM174.882 101.87L163.442 102.65L148.102 133.005L144.332 104.015L133.932 104.73L140.237 147.76L151.092 146.98L174.882 101.87ZM178.547 100.18L167.757 144.38L178.352 143.665L189.142 99.465L178.547 100.18ZM226.296 127.805L218.236 122.41C216.156 128.26 212.451 131.38 207.966 131.705C203.351 131.965 201.076 129.69 200.816 124.36C200.426 117.145 204.391 107.785 211.216 107.33C216.221 107.005 219.081 109.085 219.211 113.18L228.701 108.045C227.206 100.05 220.511 96.085 212.191 96.67C199.451 97.515 190.026 110.775 190.806 126.44C191.391 136.645 197.761 142.69 207.186 142.04C215.116 141.455 222.201 137.1 226.296 127.805ZM247.425 103.95L265.235 102.715L267.25 93.615L239.04 95.63L228.25 139.83L258.8 137.685L260.75 128.65L241.055 130.08L243.655 119.55L259.515 118.38L261.66 109.41L245.865 110.515L247.425 103.95Z" fill="#27AE60"/>
</svg>
