<svg id="logotype" xmlns="http://www.w3.org/2000/svg" viewBox="0 0 2534.48 900"><title>Монтажная область 11</title><path d="M450,580l55,222,84-22L509,476ZM260,729c-98,0-176-78-176-176s78-176,176-176,176,78,176,176S358,729,260,729Zm0,84A260,260,0,1,0,0,553,259.48,259.48,0,0,0,260,813Z"/><path d="M624,553a260.22,260.22,0,0,0,444,184l-59-59c-32,31-76,51-125,51-98,0-176-78-176-176s78-176,176-176c49,0,93,19,125,51l59-59A260.22,260.22,0,0,0,624,553Z"/><path d="M2090.48,553a260.22,260.22,0,0,0,444,184l-59-59c-32,31-76,51-125,51-98,0-176-78-176-176s78-176,176-176c49,0,93,19,125,51l59-59a260.22,260.22,0,0,0-444,184Z"/><path d="M1569.48,553a176.69,176.69,0,0,1,177-177c99,0,177,81,177,177a177,177,0,0,1-354,0Zm-80,0a260,260,0,0,0,520,0c0-44-9-79-137-546l-85,21,79,292a268.27,268.27,0,0,0-117-27A259.48,259.48,0,0,0,1489.48,553Z"/><path d="M1469,877,1327,344l-84,22,143,534ZM1284,519,1147,1l-84,22,138,519Z"/></svg>